<svg width="24" height="24" viewBox="0 0 24 24" fill="none" xmlns="http://www.w3.org/2000/svg">
  <path d="M12 2C8.13 2 5 5.13 5 9c0 1.65.63 3.15 1.67 4.29C6.24 14.19 6 15.06 6 16v2c0 1.1.9 2 2 2h12c1.1 0 2-.9 2-2v-2c0-.94-.24-1.81-.67-2.71C18.37 12.15 19 10.65 19 9c0-3.87-3.13-7-7-7zm0 2c2.76 0 5 2.24 5 5 0 1.51-.63 2.91-1.67 3.93C13.24 12.62 12.66 12 12 12c-1.1 0-2 .9-2 2s.9 2 2 2h2v2H8v-2h2c1.1 0 2-.9 2-2s-.9-2-2-2c-.66 0-1.24.62-1.33 1.21C8.63 11.91 8 10.51 8 9c0-3.31 2.69-6 6-6z" fill="#637381"/>
</svg>